<svg width="45" height="45" viewBox="0 0 45 45" fill="none" xmlns="http://www.w3.org/2000/svg">
<path d="M24.4528 42C18.7066 42 13.315 39.8174 9.27098 35.8545C5.22701 31.8915 3 26.6074 3 20.9761C2.99914 17.0913 4.09674 13.2823 6.17098 9.97181C8.24521 6.66132 11.2149 3.97886 14.7505 2.22217C15.1143 2.04045 15.5246 1.96775 15.9302 2.01316C16.3359 2.05856 16.7189 2.22004 17.0315 2.47745C17.344 2.73486 17.5723 3.07679 17.6878 3.46057C17.8033 3.84434 17.8009 4.25294 17.6809 4.63538C16.672 7.82896 16.5728 11.232 17.3941 14.4768C18.2154 17.7216 19.9259 20.6847 22.3408 23.046C24.0739 24.757 26.136 26.1141 28.4078 27.0388C30.6796 27.9635 33.116 28.4374 35.576 28.433C37.4579 28.4345 39.3292 28.1578 41.1269 27.6125C41.5172 27.4948 41.9342 27.4924 42.3258 27.6056C42.7175 27.7188 43.0665 27.9425 43.3291 28.2488C43.5918 28.5552 43.7566 28.9306 43.8029 29.3282C43.8492 29.7257 43.775 30.1279 43.5895 30.4843C41.7969 33.9492 39.0597 36.8596 35.6817 38.8923C32.3036 40.9251 28.4169 42.0008 24.4528 42V42ZM14.6763 5.31431C11.9346 6.94908 9.66986 9.24958 8.10105 11.9933C6.53225 14.737 5.71252 17.831 5.72115 20.9761C5.72115 31.0982 14.1241 39.3333 24.4528 39.3333C27.6621 39.3418 30.8193 38.5384 33.619 37.001C36.4187 35.4636 38.7662 33.2441 40.4343 30.5573C38.8413 30.9186 37.2114 31.1007 35.5762 31.1C32.7587 31.1053 29.9682 30.5628 27.3661 29.5041C24.764 28.4453 22.4021 26.8913 20.417 24.9319C17.8381 22.4094 15.9578 19.2845 14.9533 15.8522C13.9489 12.4199 13.8536 8.79329 14.6763 5.31481V5.31431Z" fill="currentColor"/>
</svg>
