<svg xmlns="http://www.w3.org/2000/svg" xmlns:xlink="http://www.w3.org/1999/xlink"><symbol id="icon-close" viewBox="0 0 20 20"><path d="M.293 18.291a1 1 0 101.414 1.414L10 11.413l8.292 8.292a1 1 0 101.414-1.414l-8.292-8.292 8.292-8.292A1 1 0 1018.291.293L9.999 8.585 1.707.293A1 1 0 10.293 1.707L8.585 10 .293 18.291z"/></symbol><symbol id="icon-moon" viewBox="0 0 45 45">
<path d="M24.4528 42C18.7066 42 13.315 39.8174 9.27098 35.8545C5.22701 31.8915 3 26.6074 3 20.9761C2.99914 17.0913 4.09674 13.2823 6.17098 9.97181C8.24521 6.66132 11.2149 3.97886 14.7505 2.22217C15.1143 2.04045 15.5246 1.96775 15.9302 2.01316C16.3359 2.05856 16.7189 2.22004 17.0315 2.47745C17.344 2.73486 17.5723 3.07679 17.6878 3.46057C17.8033 3.84434 17.8009 4.25294 17.6809 4.63538C16.672 7.82896 16.5728 11.232 17.3941 14.4768C18.2154 17.7216 19.9259 20.6847 22.3408 23.046C24.0739 24.757 26.136 26.1141 28.4078 27.0388C30.6796 27.9635 33.116 28.4374 35.576 28.433C37.4579 28.4345 39.3292 28.1578 41.1269 27.6125C41.5172 27.4948 41.9342 27.4924 42.3258 27.6056C42.7175 27.7188 43.0665 27.9425 43.3291 28.2488C43.5918 28.5552 43.7566 28.9306 43.8029 29.3282C43.8492 29.7257 43.775 30.1279 43.5895 30.4843C41.7969 33.9492 39.0597 36.8596 35.6817 38.8923C32.3036 40.9251 28.4169 42.0008 24.4528 42V42ZM14.6763 5.31431C11.9346 6.94908 9.66986 9.24958 8.10105 11.9933C6.53225 14.737 5.71252 17.831 5.72115 20.9761C5.72115 31.0982 14.1241 39.3333 24.4528 39.3333C27.6621 39.3418 30.8193 38.5384 33.619 37.001C36.4187 35.4636 38.7662 33.2441 40.4343 30.5573C38.8413 30.9186 37.2114 31.1007 35.5762 31.1C32.7587 31.1053 29.9682 30.5628 27.3661 29.5041C24.764 28.4453 22.4021 26.8913 20.417 24.9319C17.8381 22.4094 15.9578 19.2845 14.9533 15.8522C13.9489 12.4199 13.8536 8.79329 14.6763 5.31481V5.31431Z" fill="currentColor"/>
</symbol><symbol id="icon-sun" viewBox="0 0 45 45">
<path d="M22.8375 17.2125C23.95 17.2125 25.0376 17.5424 25.9626 18.1605C26.8876 18.7786 27.6086 19.6571 28.0343 20.6849C28.4601 21.7127 28.5715 22.8437 28.3544 23.9349C28.1374 25.026 27.6017 26.0283 26.815 26.815C26.0283 27.6016 25.0261 28.1374 23.9349 28.3544C22.8438 28.5715 21.7128 28.4601 20.6849 28.0343C19.6571 27.6086 18.7786 26.8876 18.1605 25.9626C17.5424 25.0376 17.2125 23.95 17.2125 22.8375C17.2144 21.3462 17.8076 19.9166 18.8621 18.8621C19.9166 17.8076 21.3463 17.2144 22.8375 17.2125ZM22.8375 14.4C21.1687 14.4 19.5374 14.8949 18.1499 15.822C16.7624 16.7491 15.6809 18.0669 15.0423 19.6086C14.4037 21.1504 14.2366 22.8469 14.5622 24.4836C14.8877 26.1203 15.6913 27.6237 16.8713 28.8037C18.0513 29.9837 19.5547 30.7873 21.1915 31.1129C22.8282 31.4384 24.5247 31.2713 26.0664 30.6327C27.6082 29.9941 28.9259 28.9127 29.8531 27.5251C30.7802 26.1376 31.275 24.5063 31.275 22.8375C31.275 20.5997 30.3861 18.4536 28.8037 16.8713C27.2214 15.2889 25.0753 14.4 22.8375 14.4Z" fill="currentColor"/>
<path d="M7.58533 9.58078L9.57376 7.59093L14.5041 12.5212L12.5156 14.5097L7.58533 9.58078Z" fill="currentColor"/>
<path d="M2.8125 21.1008H9.84375V23.9133H2.8125V21.1008Z" fill="currentColor"/>
<path d="M7.58533 35.4333L12.5156 30.503L14.5041 32.4928L9.57376 37.4217L7.58533 35.4333Z" fill="currentColor"/>
<path d="M21.0938 35.1633H23.9062V42.1945H21.0938V35.1633Z" fill="currentColor"/>
<path d="M30.4973 32.4928L32.4858 30.503L37.4161 35.4333L35.4276 37.4217L30.4973 32.4928Z" fill="currentColor"/>
<path d="M35.1562 21.1008H42.1875V23.9133H35.1562V21.1008Z" fill="currentColor"/>
<path d="M30.4973 12.5212L35.4276 7.59093L37.4161 9.58078L32.4858 14.5097L30.4973 12.5212Z" fill="currentColor"/>
<path d="M21.0938 2.81953H23.9062V9.85078H21.0938V2.81953Z" fill="currentColor"/>
</symbol></svg>